<?xml version="1.0" encoding="UTF-8"?>
<svg version="1.1" xmlns="http://www.w3.org/2000/svg" width="451" height="451">
<path d="M0 0 C148.83 0 297.66 0 451 0 C451 148.83 451 297.66 451 451 C302.17 451 153.34 451 0 451 C0 302.17 0 153.34 0 0 Z " fill="#FEFEFE" transform="translate(0,0)"/>
<path d="M0 0 C3.2358794 0.82467922 5.56636208 1.91891752 8.43212891 3.61743164 C9.44130371 4.20838623 10.45047852 4.79934082 11.49023438 5.40820312 C12.57191895 6.05345947 13.65360352 6.69871582 14.76806641 7.36352539 C15.92123949 8.04177178 17.07506235 8.71891446 18.22949219 9.39501953 C20.03575023 10.45313792 21.84153313 11.5119977 23.64535522 12.57426453 C30.06839135 16.35651075 36.54107594 20.04944105 43.01806641 23.73852539 C44.77995624 24.74387938 46.54158267 25.74969379 48.30319214 26.75553894 C50.07226106 27.76558775 51.84153234 28.77528131 53.61083984 29.78491211 C57.1248732 31.79038354 60.63801419 33.79741402 64.15087891 35.80493164 C65.01822411 36.30058121 65.01822411 36.30058121 65.90309143 36.8062439 C68.7966267 38.45984391 71.69000535 40.11371719 74.58325195 41.76782227 C80.08194376 44.91104224 85.58184664 48.05207101 91.08590698 51.18588257 C93.70364847 52.67649612 96.3207232 54.16827809 98.93774414 55.66015625 C100.19294343 56.37526205 101.44847398 57.08978673 102.7043457 57.80371094 C104.43864669 58.78965395 106.17174747 59.77770727 107.90478516 60.76586914 C108.89438232 61.32910889 109.88397949 61.89234863 110.90356445 62.47265625 C113.14306641 63.80102539 113.14306641 63.80102539 114.14306641 64.80102539 C114.26764838 66.51576058 114.32270871 68.2355797 114.35079956 69.9546051 C114.3709613 71.07191513 114.39112305 72.18922516 114.41189575 73.34039307 C114.42872406 74.57722839 114.44555237 75.81406372 114.46289062 77.08837891 C114.48391846 78.38265305 114.50494629 79.67692719 114.52661133 81.01042175 C114.71467266 92.96708338 114.81724302 104.92514055 114.89875603 116.88295078 C114.96029299 125.72196273 115.06372204 134.5584239 115.22145069 143.39625221 C115.32861815 149.61029868 115.38581966 155.82364459 115.40688717 162.03857177 C115.42094562 165.7503318 115.45724949 169.458756 115.54812241 173.16949654 C116.07811604 195.74508729 116.07811604 195.74508729 112.87903595 200.79725266 C109.48093505 204.14199365 105.67803941 205.42726197 101.14306641 206.80102539 C99.5483773 207.74885075 97.97908567 208.74258536 96.45556641 209.80102539 C93.14306641 211.80102539 93.14306641 211.80102539 91.14306641 211.80102539 C91.01050368 199.36714208 90.88000337 186.93323883 90.75191498 174.49930859 C90.69233502 168.72153373 90.63212608 162.94376706 90.5703125 157.16601562 C90.28418604 130.37682067 90.05392629 103.59191587 90.14306641 76.80102539 C89.2046994 76.49795975 88.2663324 76.1948941 87.29953003 75.88264465 C84.28885037 74.8509809 81.87103543 73.63409919 79.15087891 72.00024414 C78.21018555 71.44151611 77.26949219 70.88278809 76.30029297 70.30712891 C75.2996582 69.70698975 74.29902344 69.10685059 73.26806641 68.48852539 C63.74050713 62.84574117 54.11325135 57.44794681 44.34326172 52.23681641 C38.23694752 48.97227122 32.29931701 45.5828599 26.51025391 41.77758789 C23.32745734 40.464553 21.43076187 40.91352249 18.14306641 41.80102539 C16.04267897 42.71296312 16.04267897 42.71296312 14.26806641 43.86352539 C13.23681641 44.50290039 12.20556641 45.14227539 11.14306641 45.80102539 C17.29786224 50.06611747 23.59598401 53.79055435 30.20556641 57.30102539 C41.37787123 63.31253395 52.33372135 69.66466542 63.26123047 76.1081543 C67.43626403 78.56068587 71.62817814 80.98406072 75.8203125 83.40722656 C78.14306641 84.80102539 78.14306641 84.80102539 79.14306641 85.80102539 C79.94063357 94.14765852 78.37194457 102.57193057 77.14306641 110.80102539 C72.46914364 109.4363248 68.55754579 107.42802957 64.45556641 104.86352539 C63.11787579 104.04442557 61.77929199 103.2267831 60.43994141 102.41040039 C59.73804688 101.98178711 59.03615234 101.55317383 58.31298828 101.11157227 C54.64058791 98.89358788 50.92310168 96.7547068 47.20556641 94.61352539 C39.9445572 90.42391121 32.69541899 86.21460339 25.45556641 81.98852539 C24.45058105 81.40200195 23.4455957 80.81547852 22.41015625 80.21118164 C18.28670872 77.80436248 14.16362806 75.39691518 10.04052734 72.98950195 C-0.83011843 66.64285717 -11.70304835 60.30067164 -22.60253906 54.00366211 C-27.15133476 51.37372286 -31.69229552 48.73078476 -36.22802734 46.07836914 C-37.86191406 45.12317383 -37.86191406 45.12317383 -39.52880859 44.14868164 C-41.66617044 42.89847836 -43.80291415 41.64721754 -45.93896484 40.39477539 C-46.91091797 39.82629883 -47.88287109 39.25782227 -48.88427734 38.67211914 C-49.74786865 38.16608154 -50.61145996 37.66004395 -51.5012207 37.13867188 C-53.59083657 35.95212349 -55.69601282 34.85072256 -57.85693359 33.80102539 C-57.85693359 33.14102539 -57.85693359 32.48102539 -57.85693359 31.80102539 C-55.21444633 30.27651351 -52.57195446 28.75200963 -49.92944336 27.22753906 C-47.61214747 25.89059341 -45.29491583 24.55353711 -42.9777832 23.21630859 C-37.41134274 20.00409764 -31.84435373 16.79285953 -26.27416992 13.58714294 C-24.47459208 12.55140896 -22.67524896 11.5152684 -20.87597656 10.47900391 C-18.60072827 9.16878358 -16.32502395 7.85935479 -14.04882812 6.55078125 C-12.50171143 5.65951538 -12.50171143 5.65951538 -10.92333984 4.75024414 C-10.01527588 4.227771 -9.10721191 3.70529785 -8.17163086 3.16699219 C-2.5089096 -0.17473606 -2.5089096 -0.17473606 0 0 Z " fill="#EA2329" transform="translate(296.85693359375,85.198974609375)"/>
<path d="M0 0 C0.20884949 8.50142149 0.36859675 17.00176595 0.46630955 25.50512123 C0.51321686 29.45404492 0.57679045 33.40120983 0.67895508 37.34912109 C0.77699952 41.16182994 0.83060624 44.9728517 0.85389519 48.78672409 C0.87048204 50.23898258 0.90287767 51.69115203 0.95157051 53.14268875 C1.31661732 64.47923091 1.31661732 64.47923091 -1.84542847 68.13157654 C-4.16461792 69.7054984 -6.43807405 70.8720528 -9 72 C-10.06379883 72.65073486 -11.12759766 73.30146973 -12.22363281 73.97192383 C-13.20686523 74.54450928 -14.19009766 75.11709473 -15.203125 75.70703125 C-16.33314941 76.36711182 -17.46317383 77.02719238 -18.62744141 77.70727539 C-19.83495514 78.40902691 -21.04247483 79.11076817 -22.25 79.8125 C-23.52930932 80.55886318 -24.80843974 81.30553308 -26.08740234 82.05249023 C-28.73887061 83.60067251 -31.39109302 85.14754992 -34.04394531 86.69335938 C-40.24333193 90.3066641 -46.43456894 93.93387995 -52.625 97.5625 C-53.22087921 97.9117453 -53.81675842 98.2609906 -54.43069458 98.62081909 C-62.78448672 103.51789887 -71.13167552 108.42608151 -79.46572876 113.35668945 C-81.1630148 114.36051867 -82.86116439 115.36288734 -84.55932617 116.36523438 C-89.59334578 119.34601766 -94.60081465 122.35555571 -99.546875 125.48046875 C-100.3819458 126.00527832 -101.2170166 126.53008789 -102.07739258 127.07080078 C-103.60002747 128.03317786 -105.11607607 129.00609401 -106.6237793 129.99169922 C-111.47975976 133.06044619 -111.47975976 133.06044619 -113.89111328 132.78027344 C-116.46175923 131.82915229 -118.73413104 130.61169577 -121.12109375 129.26171875 C-122.12785156 128.69517578 -123.13460937 128.12863281 -124.171875 127.54492188 C-125.78835937 126.62549805 -125.78835937 126.62549805 -127.4375 125.6875 C-128.55769531 125.05521484 -129.67789063 124.42292969 -130.83203125 123.77148438 C-138.58717435 119.38833377 -146.32263538 114.97046461 -154.04931641 110.53735352 C-160.77590305 106.68279976 -167.54066908 102.89936899 -174.3125 99.125 C-183.72521484 93.87289381 -193.12567915 88.59359307 -202.34887695 83.01318359 C-207.05079887 80.18472969 -211.63572611 77.65125546 -216.7265625 75.58984375 C-227.04800409 71.16517163 -227.04800409 71.16517163 -230 67 C-232.23405883 58.53199705 -231.16876917 49.57507485 -230 41 C-217.11927041 47.1812145 -204.70255167 54.12215342 -192.27001953 61.15332031 C-187.02172761 64.11719071 -181.76042456 67.05773565 -176.5 70 C-174.41660001 71.16654763 -172.33326677 72.33321447 -170.25 73.5 C-168.703125 74.36625 -168.703125 74.36625 -167.125 75.25 C-157.75 80.5 -157.75 80.5 -154.61987305 82.25366211 C-152.55452944 83.40973088 -150.48829746 84.5642141 -148.42114258 85.71704102 C-143.52143274 88.45209599 -138.63278842 91.20278706 -133.77401733 94.01010132 C-132.03514501 95.01382153 -130.29298232 96.01183443 -128.55078125 97.00976562 C-126.35101399 98.27060783 -124.15672922 99.54107634 -121.96875 100.82226562 C-120.98261719 101.38494141 -119.99648437 101.94761719 -118.98046875 102.52734375 C-118.11317139 103.02999756 -117.24587402 103.53265137 -116.35229492 104.05053711 C-113.57570674 105.17125859 -112.73044094 105.1377662 -110 104 C-108.2012186 103.05119223 -106.43328002 102.04312167 -104.6875 101 C-103.62499023 100.36803711 -102.56248047 99.73607422 -101.46777344 99.08496094 C-100.31175543 98.39012954 -99.15583338 97.69513848 -98 97 C-96.80521549 96.28644472 -95.61022507 95.57323413 -94.41503906 94.86035156 C-84.31123057 88.82419267 -74.24915089 82.71770916 -64.203125 76.5859375 C-48.48365661 67 -48.48365661 67 -46 67 C-46 62.38 -46 57.76 -46 53 C-57.06800531 59.04195459 -67.962306 65.31381692 -78.75390625 71.8359375 C-84.37922116 75.23570047 -90.03008518 78.59148591 -95.6875 81.9375 C-96.5837207 82.46899658 -97.47994141 83.00049316 -98.40332031 83.5480957 C-103.88715057 86.78942742 -109.41427169 89.93757075 -115 93 C-118.15456165 90.90869363 -121.29700995 88.79986679 -124.4375 86.6875 C-125.33533203 86.09259766 -126.23316406 85.49769531 -127.15820312 84.88476562 C-128.01220703 84.30791016 -128.86621094 83.73105469 -129.74609375 83.13671875 C-130.93223267 82.34334106 -130.93223267 82.34334106 -132.14233398 81.53393555 C-134 80 -134 80 -135 77 C-134.46334717 76.69408936 -133.92669434 76.38817871 -133.3737793 76.07299805 C-121.33885986 69.2103213 -109.32576097 62.3118237 -97.34277344 55.35888672 C-94.19020104 53.5302896 -91.03607862 51.70437615 -87.88183594 49.87866211 C-86.2886327 48.95647897 -84.69553441 48.03411448 -83.10253906 47.11157227 C-79.27028122 44.89225839 -75.43714592 42.6744995 -71.6015625 40.4609375 C-61.28961066 34.50597257 -51.01403736 28.49042908 -40.74664307 22.45910645 C-30.18074175 16.25473695 -19.56704439 10.13878398 -8.90625 4.09863281 C-7.27299252 3.15733431 -5.66487398 2.17264797 -4.0625 1.1796875 C-2 0 -2 0 0 0 Z " fill="#EA2328" transform="translate(305,284)"/>
<path d="M0 0 C2.49414062 1.22070313 2.49414062 1.22070313 5.15625 2.78125 C6.16381348 3.36720947 7.17137695 3.95316895 8.20947266 4.55688477 C9.83828369 5.51872681 9.83828369 5.51872681 11.5 6.5 C12.65246921 7.17371674 13.80530927 7.84679944 14.95849609 8.51928711 C18.0203344 10.30715474 21.07704111 12.10361908 24.13269043 13.90203857 C27.19245564 15.70115332 30.25655724 17.49284777 33.3203125 19.28515625 C38.20152998 22.14190603 43.08013706 25.00306423 47.95703125 27.8671875 C54.40228813 31.65190008 60.85555113 35.42276508 67.3125 39.1875 C68.27244873 39.74767822 69.23239746 40.30785645 70.22143555 40.88500977 C75.31220872 43.85466322 80.40743456 46.81640182 85.5078125 49.76953125 C87.12175903 50.70599487 87.12175903 50.70599487 88.76831055 51.66137695 C90.81005217 52.84590482 92.85308659 54.02820851 94.89770508 55.20776367 C96.74037665 56.27785139 98.5737672 57.36412482 100.39624023 58.46826172 C102.97189585 60.03174638 102.97189585 60.03174638 105.66821289 61.28564453 C108.2669297 62.66010078 110.07488793 63.77179002 112 66 C113.08024255 70.34510128 112.85580129 74.43286426 112.5625 78.875 C112.52189453 80.0403125 112.48128906 81.205625 112.43945312 82.40625 C112.3336343 85.27511602 112.18599238 88.13539942 112 91 C108.45113503 90.3164414 105.69292145 88.8681737 102.546875 87.11328125 C100.92471069 86.21138062 100.92471069 86.21138062 99.26977539 85.29125977 C98.09636329 84.63194653 96.92310895 83.97235246 95.75 83.3125 C94.52928662 82.62999972 93.30850109 81.94762848 92.08764648 81.26538086 C83.37843842 76.38687843 74.73837359 71.39413481 66.12939453 66.34082031 C58.49263945 61.85922122 50.81764615 57.44721297 43.125 53.0625 C33.59116513 47.62655894 24.06853443 42.17193279 14.5625 36.6875 C13.47275879 36.0591626 12.38301758 35.4308252 11.26025391 34.78344727 C3.15387772 30.10341767 3.15387772 30.10341767 0.48803711 28.31176758 C-2.35149568 26.81468097 -3.83690359 26.57756181 -7 27 C-9.18404099 27.88919867 -9.18404099 27.88919867 -11.28125 29.24609375 C-12.10898926 29.74544434 -12.93672852 30.24479492 -13.78955078 30.75927734 C-14.68399902 31.31309082 -15.57844727 31.8669043 -16.5 32.4375 C-18.46554879 33.62728896 -20.43172875 34.81603567 -22.3984375 36.00390625 C-23.45514648 36.64602051 -24.51185547 37.28813477 -25.60058594 37.94970703 C-31.11559361 41.27598069 -36.67693931 44.52248828 -42.23754883 47.77175903 C-44.6652731 49.190797 -47.09127476 50.61276343 -49.51715088 52.03495789 C-51.22836654 53.03743721 -52.94083295 54.03778055 -54.65332031 55.03808594 C-56.92872041 56.37198696 -59.19884715 57.7122744 -61.46386719 59.06347656 C-62.54571289 59.70510742 -63.62755859 60.34673828 -64.7421875 61.0078125 C-65.70753418 61.58418457 -66.67288086 62.16055664 -67.66748047 62.75439453 C-70 64 -70 64 -72 64 C-72 68.62 -72 73.24 -72 78 C-61.75429172 72.42684327 -51.55131047 66.80872576 -41.5234375 60.85107422 C-34.88886184 56.91412448 -28.19082933 53.09192413 -21.48071289 49.28540039 C-20.6530542 48.81481201 -19.82539551 48.34422363 -18.97265625 47.859375 C-18.15684082 47.39982422 -17.34102539 46.94027344 -16.50048828 46.46679688 C-14.74605663 45.43763994 -13.02211129 44.3555676 -11.32373047 43.23632812 C-10.45248535 42.66849609 -9.58124023 42.10066406 -8.68359375 41.515625 C-7.9042749 40.98743164 -7.12495605 40.45923828 -6.32202148 39.91503906 C-4 39 -4 39 -1.45654297 39.68676758 C2.31218689 41.70147618 5.79018137 44.02318509 9.3125 46.4375 C10.05306641 46.92798828 10.79363281 47.41847656 11.55664062 47.92382812 C12.25595703 48.40142578 12.95527344 48.87902344 13.67578125 49.37109375 C14.31427002 49.80349365 14.95275879 50.23589355 15.6105957 50.68139648 C16.06909912 51.11653564 16.52760254 51.5516748 17 52 C17 52.99 17 53.98 17 55 C16.36312256 55.35602295 15.72624512 55.7120459 15.07006836 56.07885742 C-5.56129596 67.61493192 -26.15272853 79.21727101 -46.66567993 90.96282959 C-55.92061354 96.26042141 -65.21064822 101.49254524 -74.52416992 106.68652344 C-80.22421658 109.87035788 -85.90814989 113.08041417 -91.57421875 116.32421875 C-92.52840195 116.87047409 -92.52840195 116.87047409 -93.50186157 117.42776489 C-96.59931767 119.20211633 -99.69509825 120.97933293 -102.7890625 122.75976562 C-103.90410156 123.39978516 -105.01914063 124.03980469 -106.16796875 124.69921875 C-107.15047607 125.26471436 -108.1329834 125.83020996 -109.14526367 126.4128418 C-112.05703022 128.0317073 -115.01636583 129.51874338 -118 131 C-118.5599114 122.50811622 -118.98415861 114.02407798 -119.24349213 105.51822472 C-119.36809526 101.56601154 -119.53623532 97.62651681 -119.81054688 93.68164062 C-121.5279915 68.32252722 -121.5279915 68.32252722 -115.75219727 61.24597168 C-110.13289313 56.64561704 -103.89686546 53.85078928 -97.15238953 51.28236389 C-91.9903019 49.18247277 -87.29051916 46.32555679 -82.5 43.5 C-80.58930381 42.4195186 -78.67677233 41.34227063 -76.76171875 40.26953125 C-70.91303469 36.9635807 -65.10951201 33.58304309 -59.3125 30.1875 C-47.05515196 23.00787825 -34.74093255 15.92782722 -22.37402344 8.93847656 C-19.9692841 7.55688247 -17.5944443 6.1530999 -15.22753906 4.70996094 C-14.60086334 4.33447113 -13.97418762 3.95898132 -13.32852173 3.57211304 C-11.57343269 2.51905961 -9.82673215 1.45206209 -8.08056641 0.38427734 C-4.62262747 -1.16957539 -3.49984813 -1.28867363 0 0 Z " fill="#EA2228" transform="translate(263,26)"/>
<path d="M0 0 C0.83917969 0.53238281 1.67835938 1.06476562 2.54296875 1.61328125 C4.01574997 2.41213978 5.49132317 3.20585997 6.96875 3.99609375 C8.599356 4.90712058 10.22822133 5.82126889 11.85546875 6.73828125 C12.69142578 7.20621094 13.52738281 7.67414062 14.38867188 8.15625 C16.44163108 9.30590715 18.49299077 10.45831927 20.54296875 11.61328125 C20.54296875 12.27328125 20.54296875 12.93328125 20.54296875 13.61328125 C19.41761719 14.23074219 18.29226562 14.84820312 17.1328125 15.484375 C9.3355704 19.77889291 1.58775649 24.12111478 -6.02270508 28.73974609 C-12.08860136 32.4129876 -18.20660244 35.99609225 -24.3276062 39.57644653 C-34.63537402 45.60578355 -44.93257261 51.65232534 -55.20703125 57.73828125 C-56.65480957 58.59498413 -56.65480957 58.59498413 -58.13183594 59.46899414 C-60.2237315 60.70937438 -62.2912839 61.99133458 -64.33862305 63.30395508 C-67.68107236 65.33042606 -71.12353381 66.66376334 -74.77270508 68.0534668 C-86.52841764 72.89348282 -86.52841764 72.89348282 -94.24222565 82.49336243 C-97.45359559 93.69049025 -96.33184947 105.96695937 -95.75653076 117.45135498 C-95.60664271 121.09743277 -95.58844986 124.73911207 -95.57364941 128.38786411 C-95.55147727 131.91262893 -95.4749584 135.43442597 -95.37926674 138.95789909 C-95.33506396 140.63571956 -95.30131294 142.31385077 -95.27846336 143.99209785 C-95.23297623 146.33678104 -95.12111857 148.66880409 -94.98901367 151.01000977 C-94.98569031 151.69423004 -94.98236694 152.37845032 -94.97894287 153.08340454 C-94.89476325 155.36463319 -94.89476325 155.36463319 -93.45703125 158.61328125 C-90.15703125 160.59328125 -86.85703125 162.57328125 -83.45703125 164.61328125 C-83.12703125 138.54328125 -82.79703125 112.47328125 -82.45703125 85.61328125 C-61.45703125 75.61328125 -61.45703125 75.61328125 -59.45703125 75.61328125 C-59.45703125 127.09328125 -59.45703125 178.57328125 -59.45703125 231.61328125 C-66.88064644 227.90147366 -74.11666188 224.20628483 -81.26953125 220.05078125 C-83.07390932 219.0111815 -84.87860971 217.97214104 -86.68359375 216.93359375 C-87.6159082 216.39637695 -88.54822266 215.85916016 -89.50878906 215.30566406 C-94.70709164 212.32167653 -99.92581971 209.37388398 -105.14453125 206.42578125 C-106.14266846 205.86109131 -107.14080566 205.29640137 -108.16918945 204.71459961 C-109.09304443 204.19260986 -110.01689941 203.67062012 -110.96875 203.1328125 C-112.19791138 202.43828979 -112.19791138 202.43828979 -113.4519043 201.72973633 C-114.7711688 200.9951696 -116.10646186 200.28856595 -117.45703125 199.61328125 C-117.66735497 182.37605529 -117.82601894 165.13923018 -117.9233408 147.90101433 C-117.96973224 139.89678916 -118.03296714 131.8933616 -118.13598633 123.88964844 C-118.2257451 116.91282529 -118.28376705 109.93657975 -118.3038277 102.95919526 C-118.31555359 99.26497581 -118.34306559 95.5724086 -118.40860176 91.87871933 C-118.48121046 87.75287653 -118.48293755 83.6298976 -118.47875977 79.50341797 C-118.51111725 78.2813414 -118.54347473 77.05926483 -118.57681274 75.80015564 C-118.48787994 67.69662934 -118.48787994 67.69662934 -115.49928474 64.55583 C-113.20934295 63.00623974 -110.95929354 61.78121051 -108.45703125 60.61328125 C-107.38163086 59.96665527 -106.30623047 59.3200293 -105.19824219 58.65380859 C-103.7098584 57.81003662 -103.7098584 57.81003662 -102.19140625 56.94921875 C-100.50132446 55.98761841 -100.50132446 55.98761841 -98.77709961 55.0065918 C-97.58709519 54.33378913 -96.39707199 53.66101967 -95.20703125 52.98828125 C-93.96017198 52.28004847 -92.71351116 51.57146622 -91.46704102 50.86254883 C-88.96929974 49.44246181 -86.47067327 48.02395471 -83.97119141 46.60693359 C-79.10651618 43.84835407 -74.24988356 41.07573008 -69.39453125 38.30078125 C-68.5526123 37.81988037 -67.71069336 37.33897949 -66.84326172 36.84350586 C-58.81039815 32.25139856 -50.80293057 27.61585384 -42.79980469 22.97216797 C-40.43880478 21.60270929 -38.07698941 20.23466887 -35.71484375 18.8671875 C-34.92883789 18.41182617 -34.14283203 17.95646484 -33.33300781 17.48730469 C-31.76077778 16.57808658 -30.18722673 15.67114863 -28.61230469 14.76660156 C-24.44396197 12.36811604 -20.3128158 9.92335926 -16.21484375 7.40625 C-15.35568359 6.88675781 -14.49652344 6.36726563 -13.61132812 5.83203125 C-11.9603446 4.8325169 -10.31788196 3.81875065 -8.68554688 2.7890625 C-3.19941992 -0.5035653 -3.19941992 -0.5035653 0 0 Z " fill="#EA2228" transform="translate(189.45703125,26.38671875)"/>
<path d="M0 0 C-0.02130588 1.01930792 -0.02130588 1.01930792 -0.04304218 2.05920792 C-0.38225523 18.6369227 -0.60396844 35.21170093 -0.69690418 51.79254532 C-0.74464868 59.81155633 -0.83130823 67.82653053 -1.01147461 75.84375 C-1.16852076 82.83662835 -1.25062731 89.82581503 -1.24489135 96.82052207 C-1.24441848 100.52222231 -1.2799753 104.21523724 -1.40552711 107.91498566 C-2.49924567 123.06039764 -2.49924567 123.06039764 3.04842758 136.38819504 C8.0354328 140.37746769 13.49229503 142.83317527 19.45561314 145.01718712 C23.08900791 146.42064791 26.2470765 148.30774284 29.578125 150.3203125 C32.99269639 152.26816745 36.40789104 154.21485683 39.82641602 156.15576172 C45.06079201 159.13344154 50.27103224 162.133821 55.38671875 165.3125 C56.16950195 165.79444824 56.95228516 166.27639648 57.75878906 166.77294922 C59.16263353 167.64413822 60.55742608 168.53017353 61.94042969 169.43408203 C65.57045134 171.6902503 65.57045134 171.6902503 69.703125 171.375 C70.46109375 170.92125 71.2190625 170.4675 72 170 C72.99966797 169.47019531 72.99966797 169.47019531 74.01953125 168.9296875 C74.61121094 168.58164062 75.20289063 168.23359375 75.8125 167.875 C76.864375 167.25625 77.91625 166.6375 79 166 C69.65232378 160.01600051 60.00893336 154.61289265 50.31152344 149.21972656 C43.83160747 145.60812919 37.40663869 141.93490042 31.078125 138.06420898 C28.09083537 136.23984085 25.08278994 134.47377255 22.01953125 132.78125 C21.36686279 132.4188623 20.71419434 132.05647461 20.04174805 131.68310547 C18.24289465 130.69008157 16.4380498 129.70793312 14.6328125 128.7265625 C12 127 12 127 11 124 C11.05097146 122.14957622 11.17400987 120.30071381 11.33984375 118.45703125 C11.43330078 117.38388672 11.52675781 116.31074219 11.62304688 115.20507812 C11.72681641 114.08552734 11.83058594 112.96597656 11.9375 111.8125 C12.03740234 110.68134766 12.13730469 109.55019531 12.24023438 108.38476562 C12.48793398 105.58929865 12.74141037 102.7944772 13 100 C20.77652329 104.19702126 28.47291931 108.51796597 36.125 112.9375 C37.25099609 113.5871875 38.37699219 114.236875 39.53710938 114.90625 C48.2842098 119.96473114 56.95191753 125.15045328 65.60205078 130.37280273 C73.01735383 134.83906195 80.49090836 139.19354604 88 143.5 C98.7097613 149.64391967 109.31272584 155.95007758 119.88671875 162.32421875 C129.21949244 167.94729368 138.6104221 173.47248107 148 179 C144.58507349 182.89019978 140.7497821 184.98238458 136.25 187.375 C128.58897463 191.53776733 121.02573275 195.84734127 113.5 200.25 C112.51032227 200.8279834 111.52064453 201.4059668 110.50097656 202.00146484 C109.06189941 202.84378662 109.06189941 202.84378662 107.59375 203.703125 C106.66046875 204.24517578 105.7271875 204.78722656 104.765625 205.34570312 C102.89615955 206.46394976 101.05221882 207.62583008 99.234375 208.82617188 C98.36296875 209.39400391 97.4915625 209.96183594 96.59375 210.546875 C95.44422852 211.32562988 95.44422852 211.32562988 94.27148438 212.12011719 C92 213 92 213 89.40942383 212.2578125 C86.30543447 210.63740991 83.22890185 208.98443685 80.1875 207.25 C79.50518311 206.86368408 78.82286621 206.47736816 78.11987305 206.0793457 C70.77679335 201.90462856 63.49028621 197.63210625 56.19995117 193.36621094 C49.65484526 189.53887941 43.08946279 185.75039243 36.5 182 C26.00479674 176.02309433 15.57444668 169.93761517 5.14941406 163.83935547 C1.82882658 161.90002941 -1.49532902 159.9669348 -4.8203125 158.03515625 C-5.92785889 157.3911084 -7.03540527 156.74706055 -8.17651367 156.08349609 C-10.31663759 154.83918956 -12.45740464 153.59598839 -14.59887695 152.35400391 C-15.5549585 151.7976123 -16.51104004 151.2412207 -17.49609375 150.66796875 C-18.34357178 150.17578857 -19.1910498 149.6836084 -20.06420898 149.17651367 C-22 148 -22 148 -23 147 C-23.09629597 145.25373476 -23.12187539 143.50354095 -23.12025452 141.75462341 C-23.12162918 140.61733795 -23.12300385 139.48005249 -23.12442017 138.30830383 C-23.12082489 137.04954941 -23.11722961 135.79079498 -23.11352539 134.49389648 C-23.11367142 133.17701843 -23.11381744 131.86014038 -23.1139679 130.50335693 C-23.11425587 126.88161732 -23.10835924 123.25991054 -23.10139394 119.63817859 C-23.0951603 115.85718116 -23.09455659 112.07618305 -23.09336853 108.29518127 C-23.09025524 101.1305571 -23.08204189 93.9659481 -23.07201904 86.80133063 C-23.06085782 78.64668838 -23.05534743 70.49204543 -23.05032361 62.33739746 C-23.03985928 45.55825607 -23.02225989 28.77912997 -23 12 C-22.47043701 11.70754395 -21.94087402 11.41508789 -21.39526367 11.11376953 C-18.99193111 9.78552194 -16.58970619 8.45528352 -14.1875 7.125 C-13.35412109 6.66480469 -12.52074219 6.20460937 -11.66210938 5.73046875 C-10.85966797 5.28574219 -10.05722656 4.84101563 -9.23046875 4.3828125 C-8.49207764 3.97434082 -7.75368652 3.56586914 -6.99291992 3.14501953 C-1.51897655 0 -1.51897655 0 0 0 Z " fill="#EA2228" transform="translate(62,140)"/>
<path d="M0 0 C3.62604885 1.45041954 6.55698769 2.80495419 9.859375 4.765625 C11.26848145 5.59646606 11.26848145 5.59646606 12.70605469 6.4440918 C13.71055664 7.0400415 14.71505859 7.63599121 15.75 8.25 C25.74619687 14.13978884 35.81806486 19.86160906 45.97558594 25.46777344 C46.96848633 26.01852539 47.96138672 26.56927734 48.984375 27.13671875 C50.29486816 27.85927856 50.29486816 27.85927856 51.63183594 28.59643555 C52.41333008 29.05961182 53.19482422 29.52278809 54 30 C54.69892239 30.41236814 55.39784477 30.82473627 56.11794662 31.24960041 C58 33 58 33 58.49219131 35.44625378 C58.48666056 36.91328731 58.48666056 36.91328731 58.48101807 38.40995789 C58.48651672 39.53316437 58.49201538 40.65637085 58.49768066 41.81361389 C58.47610901 43.66290749 58.47610901 43.66290749 58.45410156 45.54956055 C58.45468567 46.84722351 58.45526978 48.14488647 58.45587158 49.48187256 C58.45702062 53.04171966 58.43348148 56.60102911 58.40557575 60.1607511 C58.38059321 63.88031787 58.3782226 67.59989658 58.37347412 71.3195343 C58.36103502 78.36378934 58.32820098 85.40779646 58.28807616 92.45194227 C58.24338734 100.47117126 58.22137872 108.49041202 58.20129442 116.50973451 C58.15946899 133.00663487 58.08909904 149.50328581 58 166 C57.48663841 166.28453946 56.97327682 166.56907892 56.44435883 166.86224079 C54.08956911 168.16781096 51.73521154 169.47415855 49.38085938 170.78051758 C48.57340271 171.22804634 47.76594604 171.6755751 46.934021 172.13666534 C40.74148782 175.57378095 34.60335161 179.09428245 28.5 182.6875 C26.44562799 183.89116363 24.39092877 185.09426893 22.3359375 186.296875 C21.2953418 186.90595703 20.25474609 187.51503906 19.18261719 188.14257812 C13.84108821 191.25997245 8.48343708 194.3492866 3.125 197.4375 C2.04976074 198.05753906 0.97452148 198.67757812 -0.13330078 199.31640625 C-5.65922147 202.50186911 -11.18774841 205.68274285 -16.71875 208.859375 C-18.3747522 209.81179077 -18.3747522 209.81179077 -20.06420898 210.78344727 C-22.25032886 212.04069591 -24.43732435 213.29642339 -26.62524414 214.55053711 C-31.76603383 217.50852649 -36.86628218 220.51107595 -41.90234375 223.64453125 C-42.81902832 224.21147705 -43.73571289 224.77842285 -44.68017578 225.36254883 C-46.38591684 226.42361405 -48.08409886 227.49696847 -49.77294922 228.5847168 C-50.52463379 229.05176025 -51.27631836 229.51880371 -52.05078125 230 C-53.02011597 230.61875 -53.02011597 230.61875 -54.0090332 231.25 C-56.73045368 232.27516293 -58.24161988 231.84753069 -61 231 C-63.31176758 229.87670898 -63.31176758 229.87670898 -65.64453125 228.49609375 C-66.90620117 227.75649414 -66.90620117 227.75649414 -68.19335938 227.00195312 C-69.05767578 226.48568359 -69.92199219 225.96941406 -70.8125 225.4375 C-71.69615234 224.91736328 -72.57980469 224.39722656 -73.49023438 223.86132812 C-75.66401428 222.5805605 -77.83367087 221.2933166 -80 220 C-76.40136243 215.85143658 -72.03706154 213.52431768 -67.3125 210.875 C-65.5791263 209.88724639 -63.84605871 208.89895545 -62.11328125 207.91015625 C-61.24654785 207.41789551 -60.37981445 206.92563477 -59.48681641 206.41845703 C-55.97279046 204.4140892 -52.4840955 202.36833275 -49 200.3125 C-48.3282373 199.91691895 -47.65647461 199.52133789 -46.96435547 199.11376953 C-42.56398292 196.51996048 -38.17006176 193.91534165 -33.77734375 191.30859375 C-31.49743119 189.95566953 -29.21749919 188.60277821 -26.9375 187.25 C-26.36211487 186.90858978 -25.78672974 186.56717957 -25.19390869 186.21542358 C-16.93992724 181.31926012 -8.66775614 176.45527894 -0.375 171.625 C1.09924438 170.76624268 1.09924438 170.76624268 2.60327148 169.89013672 C4.50240168 168.78411147 6.40157024 167.67815209 8.30078125 166.57226562 C12.41156211 164.17778039 16.52024325 161.77979782 20.625 159.375 C21.29354004 158.98521973 21.96208008 158.59543945 22.65087891 158.19384766 C25.61396151 156.45523001 28.50584799 154.67534472 31.3359375 152.7265625 C34 151 34 151 36 151 C35.97494385 150.37810791 35.9498877 149.75621582 35.92407227 149.11547852 C34.92619004 123.75207289 34.47719968 98.37750954 34 73 C30.37 71.02 26.74 69.04 23 67 C23 93.07 23 119.14 23 146 C2 156 2 156 0 156 C0 104.52 0 53.04 0 0 Z " fill="#EA2228" transform="translate(317,183)"/>
</svg>
