<?xml version="1.0" encoding="UTF-8"?>
<svg version="1.1" xmlns="http://www.w3.org/2000/svg" width="1177" height="553">
<path d="M0 0 C13.2 0 26.4 0 40 0 C47.43406078 21.6665022 54.81095829 43.34622789 62.015625 65.08984375 C62.6968636 67.14402433 63.37813818 69.19819297 64.05944824 71.25234985 C66.82465063 79.59193083 69.58841509 87.93197677 72.34277344 96.27514648 C74.39393043 102.48636412 76.45126303 108.6955022 78.515625 114.90234375 C79.00786812 116.38247011 79.00786812 116.38247011 79.51005554 117.89249802 C84.33473432 132.36505154 89.4227085 146.67528044 95.21844482 160.79249573 C96 163 96 163 97 168 C80.83 168 64.66 168 48 168 C46.72125 162.575625 45.4425 157.15125 44.125 151.5625 C43.72555176 149.86939697 43.32610352 148.17629395 42.91455078 146.43188477 C42.59142641 145.06006918 42.26834429 143.68824364 41.9453125 142.31640625 C41.70155884 141.28429016 41.70155884 141.28429016 41.45288086 140.23132324 C40.26003932 135.16219114 39.12991877 130.08463445 38 125 C21.5 125.33 5 125.66 -12 126 C-16.15858359 140.1349269 -16.15858359 140.1349269 -20.0078125 154.33984375 C-21.24897283 158.91845488 -22.63686334 163.45621113 -24 168 C-33.57 168 -43.14 168 -53 168 C-51.618125 164.32875 -50.23625 160.6575 -48.8125 156.875 C-43.7295647 143.26233948 -39.02140965 129.52977377 -34.38012695 115.76123047 C-34.11133728 114.96693634 -33.84254761 114.17264221 -33.56561279 113.35427856 C-33.06335303 111.86935801 -32.56344659 110.38363831 -32.06646729 108.89694214 C-30.57751563 104.4973365 -28.83295085 100.27074529 -27 96 C-26.14087151 93.57845409 -25.31025987 91.14665831 -24.50390625 88.70703125 C-24.27424667 88.01513199 -24.0445871 87.32323273 -23.80796814 86.61036682 C-23.31399189 85.12087833 -22.82140132 83.6309297 -22.33007812 82.14056396 C-21.54977091 79.77389269 -20.76560513 77.40853031 -19.98046875 75.04345703 C-18.03724347 69.18723978 -16.10052205 63.32887639 -14.16375732 57.47052002 C-12.53698117 52.55058103 -10.9076947 47.63148715 -9.27511597 42.71347046 C-8.51758184 40.42804318 -7.76371491 38.14142866 -7.01000977 35.85473633 C-6.5380689 34.43175505 -6.06598662 33.00882066 -5.59375 31.5859375 C-5.37150253 30.90804672 -5.14925507 30.23015594 -4.92027283 29.53172302 C-3.69124719 25.84023454 -2.26016117 22.36272509 -0.59375 18.8515625 C1.79071368 12.62650855 1.79071368 12.62650855 0 0 Z M 13.0 45.0 C 18.22742121 52.84113181 20.01355627 63.30836802 22.6328125 72.33203125 C 23.60418826 75.67014899 24.60295961 78.99887157 25.6171875 82.32421875 C 25.88869629 83.21689453 26.16020508 84.10957031 26.43994141 85.02929688 C 26.96795128 86.76195858 27.49874148 88.4937762 28.03271484 90.22460938 C 28.2745752 91.02060547 28.51643555 91.81660156 28.765625 92.63671875 C 28.97993164 93.33498779 29.19423828 94.03325684 29.41503906 94.75268555 C 30.12020983 97.46182449 30.53977973 100.2386784 31.0 103.0 C 19.12 103.0 7.24 103.0 -5.0 103.0 C -3.2834815 96.70609883 -1.58919202 90.51486473 0.375 84.3125 C 0.81000465 82.93493019 1.24489722 81.55732498 1.6796875 80.1796875 C 1.89850586 79.48842773 2.11732422 78.79716797 2.34277344 78.08496094 C 2.98730324 76.04027871 3.62405892 73.9933581 4.2578125 71.9453125 C 7.0523938 62.92180559 9.97805386 53.9501043 13.0 45.0 Z" fill="#EA2329" fill-rule="evenodd" transform="translate(929,175)"/>
<path d="M0 0 C13.2 0 26.4 0 40 0 C47.43406078 21.6665022 54.81095829 43.34622789 62.015625 65.08984375 C62.6968636 67.14402433 63.37813818 69.19819297 64.05944824 71.25234985 C66.82465063 79.59193083 69.58841509 87.93197677 72.34277344 96.27514648 C74.39393043 102.48636412 76.45126303 108.6955022 78.515625 114.90234375 C79.00786812 116.38247011 79.00786812 116.38247011 79.51005554 117.89249802 C84.33473432 132.36505154 89.4227085 146.67528044 95.21844482 160.79249573 C96 163 96 163 97 168 C80.83 168 64.66 168 48 168 C46.72125 162.575625 45.4425 157.15125 44.125 151.5625 C43.72555176 149.86939697 43.32610352 148.17629395 42.91455078 146.43188477 C42.59142641 145.06006918 42.26834429 143.68824364 41.9453125 142.31640625 C41.70155884 141.28429016 41.70155884 141.28429016 41.45288086 140.23132324 C40.26003932 135.16219114 39.12991877 130.08463445 38 125 C21.5 125.33 5 125.66 -12 126 C-16.15858359 140.1349269 -16.15858359 140.1349269 -20.0078125 154.33984375 C-21.24897283 158.91845488 -22.63686334 163.45621113 -24 168 C-33.57 168 -43.14 168 -53 168 C-51.618125 164.32875 -50.23625 160.6575 -48.8125 156.875 C-43.7295647 143.26233948 -39.02140965 129.52977377 -34.38012695 115.76123047 C-34.11133728 114.96693634 -33.84254761 114.17264221 -33.56561279 113.35427856 C-33.06335303 111.86935801 -32.56344659 110.38363831 -32.06646729 108.89694214 C-30.57751563 104.4973365 -28.83295085 100.27074529 -27 96 C-26.14087151 93.57845409 -25.31025987 91.14665831 -24.50390625 88.70703125 C-24.27424667 88.01513199 -24.0445871 87.32323273 -23.80796814 86.61036682 C-23.31399189 85.12087833 -22.82140132 83.6309297 -22.33007812 82.14056396 C-21.54977091 79.77389269 -20.76560513 77.40853031 -19.98046875 75.04345703 C-18.03724347 69.18723978 -16.10052205 63.32887639 -14.16375732 57.47052002 C-12.53698117 52.55058103 -10.9076947 47.63148715 -9.27511597 42.71347046 C-8.51758184 40.42804318 -7.76371491 38.14142866 -7.01000977 35.85473633 C-6.5380689 34.43175505 -6.06598662 33.00882066 -5.59375 31.5859375 C-5.37150253 30.90804672 -5.14925507 30.23015594 -4.92027283 29.53172302 C-3.69124719 25.84023454 -2.26016117 22.36272509 -0.59375 18.8515625 C1.79071368 12.62650855 1.79071368 12.62650855 0 0 Z M 13.0 45.0 C 18.22742121 52.84113181 20.01355627 63.30836802 22.6328125 72.33203125 C 23.60418826 75.67014899 24.60295961 78.99887157 25.6171875 82.32421875 C 25.88869629 83.21689453 26.16020508 84.10957031 26.43994141 85.02929688 C 26.96795128 86.76195858 27.49874148 88.4937762 28.03271484 90.22460938 C 28.2745752 91.02060547 28.51643555 91.81660156 28.765625 92.63671875 C 28.97993164 93.33498779 29.19423828 94.03325684 29.41503906 94.75268555 C 30.12020983 97.46182449 30.53977973 100.2386784 31.0 103.0 C 19.12 103.0 7.24 103.0 -5.0 103.0 C -3.2834815 96.70609883 -1.58919202 90.51486473 0.375 84.3125 C 0.81000465 82.93493019 1.24489722 81.55732498 1.6796875 80.1796875 C 1.89850586 79.48842773 2.11732422 78.79716797 2.34277344 78.08496094 C 2.98730324 76.04027871 3.62405892 73.9933581 4.2578125 71.9453125 C 7.0523938 62.92180559 9.97805386 53.9501043 13.0 45.0 Z" fill="#EA2329" fill-rule="evenodd" transform="translate(699,175)"/>
<path d="M0 0 C5.04232297 1.41708625 9.30548215 3.94678625 13.8359375 6.53515625 C14.76277344 7.05529297 15.68960938 7.57542969 16.64453125 8.11132812 C18.92128404 9.39053459 21.19307273 10.67777863 23.4609375 11.97265625 C23.4609375 12.63265625 23.4609375 13.29265625 23.4609375 13.97265625 C21.71118164 15.234375 21.71118164 15.234375 19.24609375 16.66015625 C18.34117187 17.18867187 17.43625 17.7171875 16.50390625 18.26171875 C15.02857422 19.10863281 15.02857422 19.10863281 13.5234375 19.97265625 C12.51796875 20.55789062 11.5125 21.143125 10.4765625 21.74609375 C8.42890109 22.93774423 6.37958365 24.12655367 4.32861328 25.3125 C0.52772255 27.5129135 -3.25627833 29.74131945 -7.0390625 31.97265625 C-8.4035728 32.77486382 -9.76815781 33.57694434 -11.1328125 34.37890625 C-16.27279662 37.40242632 -21.4057907 40.43775893 -26.5390625 43.47265625 C-33.70962981 47.71204515 -40.8846896 51.94359318 -48.06640625 56.1640625 C-54.83409492 60.14279818 -61.59161757 64.13868786 -68.34936523 68.13427734 C-74.95191278 72.03723255 -81.55987381 75.93085884 -88.17382812 79.81445312 C-89.96316199 80.86561892 -91.75117015 81.91904051 -93.5390625 82.97265625 C-94.86522835 83.52866264 -94.86522835 83.52866264 -96.21818542 84.09590149 C-98.92257015 85.85948626 -98.92257015 85.85948626 -99.14033508 89.52238464 C-99.15484302 91.02295151 -99.1415024 92.52393678 -99.10668945 94.02416992 C-99.10741959 94.84390793 -99.10814972 95.66364594 -99.10890198 96.50822449 C-99.10541647 99.21969618 -99.06651154 101.92945321 -99.02734375 104.640625 C-99.01801901 106.51962851 -99.0109013 108.39864418 -99.00590515 110.27766418 C-98.98680861 115.2247368 -98.93768496 120.17107613 -98.88238525 125.11785889 C-98.83125 130.16506021 -98.80840335 135.21237996 -98.78320312 140.25976562 C-98.72956878 150.1643848 -98.64422386 160.06845956 -98.5390625 169.97265625 C-94.9090625 171.95265625 -91.2790625 173.93265625 -87.5390625 175.97265625 C-87.2090625 148.25265625 -86.8790625 120.53265625 -86.5390625 91.97265625 C-78.27132063 87.83878532 -69.98598593 83.72684444 -61.5390625 79.97265625 C-61.5390625 135.41265625 -61.5390625 190.85265625 -61.5390625 247.97265625 C-65.16712384 246.52143172 -68.28135034 245.0972144 -71.65234375 243.20703125 C-72.64177979 242.65329834 -73.63121582 242.09956543 -74.65063477 241.52905273 C-75.70694092 240.93294189 -76.76324707 240.33683105 -77.8515625 239.72265625 C-78.94718506 239.10656494 -80.04280762 238.49047363 -81.17163086 237.85571289 C-92.69708343 231.35415441 -104.19509795 224.78678875 -115.5390625 217.97265625 C-116.22072479 217.73779007 -116.90238708 217.50292389 -117.60470581 217.26094055 C-120.27299936 216.13234692 -121.693174 215.22954594 -123.5390625 212.97265625 C-124.78169595 207.3884932 -124.60893311 201.84498265 -124.5390625 196.1484375 C-124.54737661 194.42906177 -124.55926363 192.70970008 -124.57449341 190.9903717 C-124.60511297 186.37630681 -124.58664201 181.76372757 -124.55558014 177.14971161 C-124.52805403 172.37602306 -124.5327569 167.60236547 -124.53466797 162.82861328 C-124.53559651 157.06412497 -124.53265793 151.29978938 -124.51022339 145.53533936 C-124.47607924 134.65642982 -124.63910378 123.81382352 -125.08908844 112.94434929 C-125.27253925 108.30684009 -125.39725388 103.66729366 -125.53222656 99.02816772 C-125.61949295 96.59192044 -125.73530781 94.15651368 -125.88085938 91.72305298 C-126.92324786 73.8974343 -126.92324786 73.8974343 -123.01278687 69.10031128 C-119.02089569 65.76344841 -114.52796503 63.76255413 -109.71887207 61.86743164 C-106.66597267 60.61426747 -103.92063166 58.95552718 -101.10546875 57.2421875 C-99.10458548 56.08911669 -97.10327803 54.93678166 -95.1015625 53.78515625 C-94.00666504 53.15424072 -92.91176758 52.5233252 -91.78369141 51.87329102 C-88.36919543 49.90575168 -84.95417461 47.93912591 -81.5390625 45.97265625 C-67.88005553 38.10612835 -54.23131507 30.22360803 -40.6237793 22.26831055 C-35.21252033 19.10728698 -29.79344199 15.96043843 -24.36328125 12.83203125 C-23.4667131 12.31545959 -23.4667131 12.31545959 -22.55203247 11.78845215 C-19.64440601 10.11373993 -16.73579768 8.44076951 -13.82617188 6.76953125 C-12.78654297 6.17140625 -11.74691406 5.57328125 -10.67578125 4.95703125 C-9.29459106 4.16377441 -9.29459106 4.16377441 -7.88549805 3.35449219 C-2.15006297 -0.02315452 -2.15006297 -0.02315452 0 0 Z " fill="#EA2429" transform="translate(292.5390625,53.02734375)"/>
<path d="M0 0 C0.66 0 1.32 0 2 0 C2.67733186 9.09035597 3.18951034 18.171879 3.50255299 27.28209591 C3.65299846 31.51581666 3.85575361 35.73213605 4.18774414 39.95581055 C6.21748585 66.46758636 6.21748585 66.46758636 0.74066544 73.65196991 C-5.87982567 80.3309419 -14.80327827 83.99256878 -23.38748169 87.45877075 C-28.71472288 89.73156198 -33.53224972 92.6940847 -38.4375 95.75 C-40.21378431 96.80606553 -41.992141 97.8586608 -43.7734375 98.90625 C-45.51566584 99.937431 -47.25785356 100.96868064 -49 102 C-52.52042327 104.08402726 -56.04121911 106.16742212 -59.5625 108.25 C-60.89317505 109.03721436 -60.89317505 109.03721436 -62.25073242 109.84033203 C-67.5590858 112.97732034 -72.87559263 116.09996894 -78.19921875 119.2109375 C-79.12789513 119.75399033 -79.12789513 119.75399033 -80.07533264 120.30801392 C-83.21174177 122.14202983 -86.34922282 123.97416381 -89.48852539 125.80322266 C-94.93177281 128.98098379 -100.34878476 132.18519689 -105.671875 135.5625 C-106.50106445 136.08634277 -107.33025391 136.61018555 -108.18457031 137.14990234 C-109.6767939 138.10055765 -111.16125322 139.06356781 -112.63574219 140.04150391 C-117.37165817 143.05902644 -117.37165817 143.05902644 -120.40917969 142.77368164 C-123.20297627 141.93938637 -125.36037467 140.83167693 -127.859375 139.33203125 C-128.79716797 138.77580078 -129.73496094 138.21957031 -130.70117188 137.64648438 C-131.70728516 137.04126953 -132.71339844 136.43605469 -133.75 135.8125 C-135.9207282 134.52540766 -138.09264023 133.24031016 -140.265625 131.95703125 C-141.38130859 131.29783691 -142.49699219 130.63864258 -143.64648438 129.95947266 C-148.88858564 126.89649182 -154.19206753 123.94694739 -159.5 121 C-167.72249914 116.42519585 -175.88571274 111.76407772 -184 107 C-195.19482101 100.43030383 -206.50581479 94.08269697 -217.84375 87.76416016 C-226.58304242 82.87940404 -235.28721115 77.93176728 -244 73 C-244 63.76 -244 54.52 -244 45 C-239.86480783 46.37839739 -236.95754186 47.41985637 -233.33203125 49.51171875 C-232.01271606 50.26618286 -232.01271606 50.26618286 -230.66674805 51.03588867 C-229.72484619 51.58092041 -228.78294434 52.12595215 -227.8125 52.6875 C-225.75316782 53.86556918 -223.69324701 55.04260985 -221.6328125 56.21875 C-220.55290039 56.83621094 -219.47298828 57.45367187 -218.36035156 58.08984375 C-212.65917245 61.33061863 -206.92334083 64.50860026 -201.1875 67.6875 C-200.03822021 68.32510254 -198.88894043 68.96270508 -197.70483398 69.61962891 C-194.47028088 71.41379327 -191.23520863 73.207018 -188 75 C-179.02965524 79.97375888 -170.06539609 84.95802011 -161.11645508 89.97021484 C-159.00383233 91.15299803 -156.8903925 92.33432302 -154.77612305 93.51416016 C-149.74782665 96.32331147 -144.72946239 99.1467462 -139.74229431 102.02822876 C-138.00886658 103.02883125 -136.27215374 104.02373568 -134.53540039 105.01855469 C-132.34133295 106.27614749 -130.15276933 107.54340285 -127.97045898 108.82128906 C-126.98376221 109.38428711 -125.99706543 109.94728516 -124.98046875 110.52734375 C-124.11317139 111.02999756 -123.24587402 111.53265137 -122.35229492 112.05053711 C-119.56229298 113.17667282 -118.74421264 113.14655684 -116 112 C-114.05566164 110.97808532 -112.14224839 109.89666799 -110.25 108.78125 C-109.40650749 108.28634819 -109.40650749 108.28634819 -108.54597473 107.78144836 C-106.69422588 106.69278361 -104.84704451 105.59662435 -103 104.5 C-101.70805935 103.73764906 -100.41598381 102.97552665 -99.1237793 102.21362305 C-87.7177856 95.47533482 -76.38970842 88.60868311 -65.08203125 81.70703125 C-64.05674316 81.0826416 -63.03145508 80.45825195 -61.97509766 79.81494141 C-59.99775654 78.6086757 -58.02344117 77.39743554 -56.05224609 76.18115234 C-55.15199707 75.63023926 -54.25174805 75.07932617 -53.32421875 74.51171875 C-52.53490967 74.02533936 -51.74560059 73.53895996 -50.93237305 73.0378418 C-49 72 -49 72 -47 72 C-47 67.05 -47 62.1 -47 57 C-61.62117719 65.08657286 -75.91311384 73.68450198 -90.18359375 82.37109375 C-90.80366302 82.74831573 -91.4237323 83.12553772 -92.06259155 83.51419067 C-95.13277713 85.38196772 -98.20187583 87.25147037 -101.26855469 89.125 C-103.49730536 90.4854307 -105.73161851 91.83483841 -107.97021484 93.17919922 C-109.88679804 94.3310024 -111.79467956 95.4975222 -113.68994141 96.68408203 C-114.47933105 97.16087402 -115.2687207 97.63766602 -116.08203125 98.12890625 C-116.75081299 98.54342041 -117.41959473 98.95793457 -118.10864258 99.38500977 C-120 100 -120 100 -121.97436523 99.28662109 C-122.64282471 98.86203613 -123.31128418 98.43745117 -124 98 C-125.04269043 97.3659021 -125.04269043 97.3659021 -126.10644531 96.71899414 C-128.49482228 95.17757239 -130.87430857 93.62340351 -133.25 92.0625 C-134.09046875 91.52431641 -134.9309375 90.98613281 -135.796875 90.43164062 C-136.5909375 89.90892578 -137.385 89.38621094 -138.203125 88.84765625 C-138.93176758 88.37336182 -139.66041016 87.89906738 -140.41113281 87.41040039 C-140.93545898 86.94496826 -141.45978516 86.47953613 -142 86 C-142 85.01 -142 84.02 -142 83 C-140.39306641 81.70410156 -140.39306641 81.70410156 -138.1015625 80.390625 C-137.24336914 79.89127441 -136.38517578 79.39192383 -135.50097656 78.87744141 C-134.5519043 78.34038574 -133.60283203 77.80333008 -132.625 77.25 C-131.63983398 76.68071777 -130.65466797 76.11143555 -129.63964844 75.52490234 C-127.5213437 74.30244601 -125.40013399 73.08501262 -123.27636719 71.87207031 C-120.06582693 70.03761258 -116.86371734 68.18930569 -113.6640625 66.3359375 C-108.22218433 63.18566138 -102.77386878 60.04673187 -97.32324219 56.91162109 C-91.83867113 53.75674368 -86.35636927 50.59793652 -80.875 47.4375 C-79.79766602 46.81633301 -78.72033203 46.19516602 -77.61035156 45.55517578 C-69.40939522 40.82252512 -61.22857726 36.05603343 -53.05395508 31.27807617 C-45.57227512 26.90837083 -38.07060422 22.57411894 -30.5625 18.25 C-23.00788076 13.8970229 -15.45794512 9.53682082 -7.9375 5.125 C-6.88381226 4.50866699 -6.88381226 4.50866699 -5.80883789 3.87988281 C-2.72780102 2.18022834 -2.72780102 2.18022834 0 0 Z " fill="#EA2329" transform="translate(416,328)"/>
<path d="M0 0 C-0.0169693 0.72923235 -0.0339386 1.4584647 -0.05142212 2.209795 C-0.45718528 20.00609618 -0.72836239 37.79988075 -0.8523407 55.60043526 C-0.91550112 64.20952675 -1.02309694 72.81365399 -1.23779297 81.42041016 C-1.42496171 88.92827806 -1.52622723 96.43173278 -1.52715683 103.94201553 C-1.53057744 107.91624902 -1.57504469 111.87985874 -1.72271729 115.85156631 C-2.83974606 132.29302157 -2.83974606 132.29302157 3.35713768 146.68623543 C9.0919401 151.26118252 15.37096368 154.22880384 22.17798996 156.87224388 C25.88036209 158.35181793 29.15835733 160.22593609 32.58203125 162.26171875 C34.65731614 163.4064386 36.73409014 164.54846385 38.8125 165.6875 C45.17782443 169.18442538 51.52882597 172.68334168 57.75390625 176.42578125 C58.62619873 176.94760986 59.49849121 177.46943848 60.3972168 178.00708008 C61.99884231 178.97209535 63.59336438 179.94904434 65.17895508 180.94018555 C69.19429913 183.41202516 69.19429913 183.41202516 73.77734375 183.91015625 C75.88028069 183.0490239 77.76326423 182.14393097 79.6875 180.9375 C83 179 83 179 85 179 C85 178.34 85 177.68 85 177 C84.28046143 176.72704102 83.56092285 176.45408203 82.81958008 176.17285156 C80.0466198 175.01939229 77.5052063 173.70261313 74.88671875 172.234375 C73.40389404 171.40450073 73.40389404 171.40450073 71.89111328 170.55786133 C70.30532471 169.66296997 70.30532471 169.66296997 68.6875 168.75 C67.58390137 168.12955811 66.48030273 167.50911621 65.34326172 166.86987305 C54.78188682 160.91323357 44.31085221 154.80476409 33.85253906 148.66943359 C29.24406087 145.97234579 24.62255546 143.29786741 20 140.625 C19.18611816 140.15425049 18.37223633 139.68350098 17.53369141 139.19848633 C15.68933273 138.1319694 13.84470134 137.06592412 12 136 C12.14070156 132.83308393 12.28851269 129.66653622 12.4375 126.5 C12.47681641 125.613125 12.51613281 124.72625 12.55664062 123.8125 C12.81084087 118.49384873 13.26676337 113.2743744 14 108 C18.59291383 109.63778323 22.58755084 112.00481966 26.75 114.5 C28.27598623 115.40634334 29.80202949 116.31259068 31.328125 117.21875 C32.10478516 117.68152344 32.88144531 118.14429688 33.68164062 118.62109375 C37.27969545 120.7611331 40.89009684 122.88003131 44.5 125 C45.92974608 125.84104626 47.35943355 126.68219215 48.7890625 127.5234375 C51.49148834 129.11317264 54.19461247 130.70170838 56.8984375 132.2890625 C64.47537957 136.7391171 72.04051635 141.20850632 79.59692383 145.69335938 C94.40871997 154.48400425 109.27035277 163.18666787 124.1640625 171.83789062 C147.4428826 185.36056288 147.4428826 185.36056288 158 192 C154.15088616 196.25271025 150.23866282 198.77914131 145.1875 201.4375 C143.58326752 202.30476615 141.98048075 203.17471014 140.37890625 204.046875 C139.51797363 204.51544922 138.65704102 204.98402344 137.77001953 205.46679688 C132.6723805 208.28833513 127.65152336 211.24170341 122.625 214.1875 C121.65199951 214.75718506 120.67899902 215.32687012 119.67651367 215.91381836 C118.72365479 216.47206299 117.7707959 217.03030762 116.7890625 217.60546875 C115.37415527 218.42797119 115.37415527 218.42797119 113.93066406 219.26708984 C111.86365878 220.48931606 109.81495932 221.74276208 107.78027344 223.01806641 C106.19907715 223.99332275 106.19907715 223.99332275 104.5859375 224.98828125 C103.63509277 225.58809814 102.68424805 226.18791504 101.70458984 226.8059082 C98.47667206 228.23105226 97.29654624 228.1454705 94 227 C92.18047359 226.12981406 90.39514113 225.18617912 88.640625 224.19140625 C87.61654541 223.61463135 86.59246582 223.03785645 85.53735352 222.44360352 C83.91011353 221.51245728 83.91011353 221.51245728 82.25 220.5625 C81.12327881 219.9243335 79.99655762 219.28616699 78.83569336 218.62866211 C71.35796409 214.38154264 63.92785422 210.05830489 56.53125 205.671875 C50.90132079 202.33998053 45.2307813 199.07857128 39.5625 195.8125 C38.45672607 195.17521973 37.35095215 194.53793945 36.21166992 193.88134766 C32.8080747 191.9203862 29.40408111 189.96011785 26 188 C12.79943574 180.39749952 -0.39592603 172.78625211 -13.5625 165.125 C-14.59842285 164.52357178 -15.6343457 163.92214355 -16.70166016 163.30249023 C-17.64702637 162.75149658 -18.59239258 162.20050293 -19.56640625 161.6328125 C-20.81852905 160.90408936 -20.81852905 160.90408936 -22.09594727 160.16064453 C-24 159 -24 159 -25 158 C-25.12489731 156.15852521 -25.1796925 154.31227409 -25.20773315 152.46678162 C-25.2278949 151.26533005 -25.24805664 150.06387848 -25.26882935 148.82601929 C-25.28602583 147.48224129 -25.30301716 146.13846066 -25.31982422 144.79467773 C-25.34081021 143.38880539 -25.36205654 141.9829369 -25.38354492 140.57707214 C-25.57158546 127.72102361 -25.67416825 114.86367681 -25.75568962 102.00656033 C-25.81723714 92.50200492 -25.92068651 82.99982026 -26.07838428 73.49636501 C-26.18551892 66.81522676 -26.24274787 60.13474009 -26.26382077 53.45278317 C-26.27788403 49.46166889 -26.31423196 45.47365529 -26.405056 41.48348808 C-26.4897452 37.72386723 -26.51244325 33.96882667 -26.48869324 30.20837593 C-26.49160148 28.17927716 -26.55897821 26.15058776 -26.62857056 24.12268066 C-26.56862435 20.33273939 -26.38018758 17.53528727 -25 14 C-21.0192386 10.40378772 -16.84679695 8.31093029 -12 6 C-10.09021202 4.85631953 -8.19132169 3.69386943 -6.3125 2.5 C-2.25 0 -2.25 0 0 0 Z " fill="#EA2329" transform="translate(158,174)"/>
<path d="M0 0 C2.40254783 1.00074189 4.61897668 2.16496733 6.88208008 3.45288086 C8.30375488 4.25846436 8.30375488 4.25846436 9.75415039 5.08032227 C10.75929688 5.6570166 11.76444336 6.23371094 12.80004883 6.82788086 C13.83742188 7.41875488 14.87479492 8.00962891 15.94360352 8.6184082 C22.17224193 12.17804505 28.35955164 15.79796306 34.49365234 19.51782227 C41.77602795 23.93071553 49.16270864 28.1634702 56.53930664 32.41625977 C67.11491117 38.51400063 77.68157664 44.62585296 88.19384766 50.83227539 C92.53430131 53.3926128 96.88597913 55.93269772 101.24536133 58.46069336 C102.87115112 59.40464966 102.87115112 59.40464966 104.52978516 60.36767578 C106.67425711 61.61209388 108.81988919 62.85451538 110.96679688 64.09472656 C112.44079956 64.95070435 112.44079956 64.95070435 113.94458008 65.82397461 C114.82090088 66.33114014 115.69722168 66.83830566 116.60009766 67.36083984 C117.38795654 67.84496338 118.17581543 68.32908691 118.98754883 68.82788086 C119.74350342 69.25246582 120.49945801 69.67705078 121.27832031 70.11450195 C122.98754883 71.82788086 122.98754883 71.82788086 123.44165039 74.73876953 C123.42070312 75.89610596 123.39975586 77.05344238 123.37817383 78.24584961 C123.3652832 79.49946289 123.35239258 80.75307617 123.33911133 82.04467773 C123.28883789 84.01017578 123.28883789 84.01017578 123.23754883 86.01538086 C123.2174819 87.35064096 123.19923145 88.68592969 123.18286133 90.02124023 C123.13564686 93.29084232 123.06980067 96.55900278 122.98754883 99.82788086 C105.22959091 90.16705633 87.54591798 80.39838081 70.11083984 70.1652832 C62.51569612 65.70941575 54.88631865 61.3158481 47.23754883 56.95288086 C46.66069336 56.62374695 46.08383789 56.29461304 45.48950195 55.95550537 C42.54443868 54.27535912 39.59890665 52.59603701 36.65307617 50.91723633 C30.90309852 47.64019246 25.15551662 44.35895381 19.40856934 41.07659912 C17.59241246 40.03957056 15.77584123 39.00327079 13.95922852 37.96704102 C12.30455566 37.02223877 12.30455566 37.02223877 10.61645508 36.05834961 C9.64780518 35.5055835 8.67915527 34.95281738 7.68115234 34.38330078 C5.8615785 33.33258883 4.06397553 32.24302352 2.28881836 31.11889648 C0.07046882 29.60762769 0.07046882 29.60762769 -2.46166992 29.94116211 C-5.50181437 30.9979964 -8.04933682 32.37794296 -10.82495117 34.01538086 C-11.41405273 34.35996338 -12.0031543 34.7045459 -12.61010742 35.05957031 C-13.96806552 35.85448504 -15.32422095 36.65248405 -16.67895508 37.45288086 C-19.27763102 38.98413666 -21.88462527 40.50056876 -24.49291992 42.01538086 C-34.68651598 47.93890229 -44.85786292 53.90024671 -55.01245117 59.89038086 C-55.90125977 60.41398193 -56.79006836 60.93758301 -57.70581055 61.47705078 C-59.36894247 62.45996937 -61.027441 63.45078489 -62.68041992 64.45068359 C-64.22090256 65.36042632 -65.78680293 66.22857589 -67.37573242 67.05078125 C-69.4669571 68.18345057 -71.25473887 69.22534518 -73.01245117 70.82788086 C-74.18240743 74.36732149 -74.18240743 74.36732149 -74.01245117 78.14038086 C-74.03307617 79.39463867 -74.05370117 80.64889648 -74.07495117 81.94116211 C-74.05432617 82.8937793 -74.03370117 83.84639648 -74.01245117 84.82788086 C-63.08128937 78.83782502 -52.26073391 72.67913705 -41.50537109 66.37890625 C-32.51961298 61.11587032 -23.50298871 55.90798545 -14.47729492 50.71386719 C-12.92655273 49.82090942 -12.92655273 49.82090942 -11.34448242 48.90991211 C-10.4341626 48.38631104 -9.52384277 47.86270996 -8.5859375 47.32324219 C-6.80784936 46.29005844 -5.05361933 45.21509817 -3.32080078 44.10766602 C-1.01245117 42.82788086 -1.01245117 42.82788086 1.25317383 43.26928711 C5.24619962 45.54531181 8.99011577 48.1080527 12.73754883 50.76538086 C13.51743164 51.30356445 14.29731445 51.84174805 15.10083008 52.39624023 C15.84204102 52.91895508 16.58325195 53.44166992 17.34692383 53.98022461 C18.02207031 54.45451904 18.6972168 54.92881348 19.39282227 55.41748047 C20.98754883 56.82788086 20.98754883 56.82788086 21.98754883 59.82788086 C21.29532227 60.20895996 20.6030957 60.59003906 19.88989258 60.98266602 C7.40675285 67.86360618 -5.04005421 74.78430057 -17.32495117 82.01538086 C-25.77735879 86.98795792 -34.31061501 91.77030754 -42.93774414 96.43237305 C-50.92149228 100.75373286 -58.8013142 105.2432932 -66.67260742 109.76538086 C-73.17828562 113.50281312 -79.71107452 117.1918655 -86.24609375 120.87768555 C-91.30443368 123.73086583 -96.35789444 126.59210899 -101.40307617 129.46850586 C-102.96856201 130.35904663 -102.96856201 130.35904663 -104.56567383 131.26757812 C-106.56677847 132.40618154 -108.56652475 133.54717668 -110.56469727 134.69091797 C-111.46784668 135.20404541 -112.37099609 135.71717285 -113.30151367 136.24584961 C-114.09251465 136.69726318 -114.88351563 137.14867676 -115.69848633 137.61376953 C-118.08497861 138.86593519 -120.50537657 139.84424526 -123.01245117 140.82788086 C-123.36108688 131.72703964 -123.62702616 122.62851621 -123.78963375 113.522439 C-123.86771356 109.29298611 -123.97341694 105.06812001 -124.14404297 100.84130859 C-124.30791164 96.755988 -124.39686939 92.67505282 -124.43560982 88.58669853 C-124.46318172 87.03321643 -124.51704461 85.47995714 -124.59840202 83.92836189 C-124.85370274 78.85428115 -124.79314477 74.63089372 -123.01245117 69.82788086 C-119.39355502 66.01637168 -114.67518233 63.84160439 -109.93886566 61.7205925 C-106.92624754 60.3245278 -104.12317785 58.63157354 -101.26635742 56.94116211 C-99.0366584 55.67288086 -96.8061716 54.40598367 -94.57495117 53.14038086 C-92.11704478 51.74217462 -89.66020717 50.34210104 -87.20385742 48.94116211 C-86.59402008 48.593367 -85.98418274 48.2455719 -85.35586548 47.88723755 C-79.55204625 44.57283704 -73.7794453 41.20590652 -68.01245117 37.82788086 C-58.25618356 32.11602075 -48.45817513 26.47945343 -38.62768555 20.89648438 C-32.58721703 17.46274879 -26.57438709 13.98996888 -20.59838867 10.44506836 C-18.81104424 9.39101153 -17.0231429 8.33790614 -15.23504639 7.28512573 C-13.54639402 6.2854744 -11.86550653 5.27274328 -10.18481445 4.25976562 C-9.16887207 3.66220459 -8.15292969 3.06464355 -7.10620117 2.44897461 C-6.21610352 1.91715576 -5.32600586 1.38533691 -4.40893555 0.83740234 C-2.01245117 -0.17211914 -2.01245117 -0.17211914 0 0 Z " fill="#EA2329" transform="translate(370.012451171875,51.172119140625)"/>
<path d="M0 0 C3.38593396 1.34915656 6.51770092 3.1659596 9.68310547 4.95776367 C10.4689502 5.39846191 11.25479492 5.83916016 12.06445312 6.29321289 C19.54075499 10.50633742 26.94642918 14.8403376 34.35107422 19.17773438 C42.10154484 23.714403 49.88280265 28.19489298 57.68310547 32.64526367 C58.26479492 32.97726776 58.84648437 33.30927185 59.44580078 33.65133667 C65.4124348 37.05647345 71.38183231 40.45674688 77.35253906 43.85473633 C79.76166187 45.22626342 82.17000564 46.59915503 84.57824707 47.972229 C86.20715082 48.90024781 87.83718127 49.82628818 89.46728516 50.75219727 C91.591215 51.96302662 93.69629363 53.20751557 95.78132629 54.48416138 C98.88241252 56.29928243 102.01094091 57.60273013 105.36582947 58.88269043 C111.71365474 61.55642611 117.43332804 64.42977522 121.93310547 69.77026367 C125.72120452 79.13054929 124.86685002 89.97197868 124.59188247 99.90272164 C124.50191356 103.87867004 124.527975 107.85413464 124.53767395 111.83085632 C124.53652745 118.50126689 124.44936472 125.16615447 124.30688477 131.83496094 C124.14325633 139.52985538 124.10322442 147.21766134 124.13181037 154.91408187 C124.15769176 162.34477027 124.10944853 169.7730551 124.02315712 177.20323753 C123.9870649 180.35368039 123.97423795 183.50292379 123.98003197 186.65355873 C123.98255498 190.36563835 123.91917025 194.07111183 123.8059597 197.78140831 C123.75965268 199.78070063 123.77618445 201.78114333 123.79495239 203.78088379 C123.64034573 207.52851604 123.37002793 210.30055021 121.93310547 213.77026367 C117.95062873 217.35311847 113.78453874 219.48115164 108.93310547 221.77026367 C106.82303903 222.92622566 104.71781925 224.09114416 102.62060547 225.27026367 C101.06008179 226.10729207 99.49837541 226.9421449 97.93310547 227.77026367 C96.93416666 194.22876784 96.84414629 160.69881119 96.87060547 127.14526367 C96.87146149 126.05207195 96.8723175 124.95888023 96.87319946 123.83256149 C96.88470318 110.14511296 96.90493994 96.45768767 96.93310547 82.77026367 C96.00785065 82.55348213 96.00785065 82.55348213 95.06390381 82.33232117 C92.65624943 81.69723517 90.7588666 80.73286419 88.57373047 79.53979492 C87.71779297 79.07379883 86.86185547 78.60780273 85.97998047 78.12768555 C84.59552734 77.36294922 84.59552734 77.36294922 83.18310547 76.58276367 C82.21373047 76.05102539 81.24435547 75.51928711 80.24560547 74.97143555 C73.07585618 71.01428546 65.99413698 66.91753891 58.93310547 62.77026367 C55.94004222 61.02044657 52.94562323 59.27300418 49.94970703 57.52807617 C47.90818978 56.33845783 45.86852478 55.14565605 43.83056641 53.94995117 C40.83484589 52.20189575 37.82424742 50.48278454 34.80810547 48.77026367 C33.90189453 48.23530273 32.99568359 47.7003418 32.06201172 47.14916992 C27.11310416 44.27170036 27.11310416 44.27170036 21.55810547 44.32495117 C20.69185547 44.8019043 19.82560547 45.27885742 18.93310547 45.77026367 C17.88509766 46.30006836 17.88509766 46.30006836 16.81591797 46.84057617 C16.23583984 47.18862305 15.65576172 47.53666992 15.05810547 47.89526367 C13.51123047 48.82338867 13.51123047 48.82338867 11.93310547 49.77026367 C20.32708583 55.02556594 28.80843814 60.01085374 37.49560547 64.77026367 C39.84406532 66.06571405 42.19194042 67.36214126 44.53857422 68.66088867 C45.43700043 69.15797333 45.43700043 69.15797333 46.35357666 69.6651001 C53.37271697 73.55652848 60.34253319 77.53396915 67.30810547 81.52026367 C67.90978546 81.86428223 68.51146545 82.20830078 69.13137817 82.56274414 C72.73623997 84.62454055 76.34065319 86.68691326 79.93310547 88.77026367 C80.86340576 89.29450928 81.79370605 89.81875488 82.75219727 90.35888672 C84.93310547 91.77026367 84.93310547 91.77026367 85.49169922 93.61791992 C85.45173828 94.34881836 85.41177734 95.0797168 85.37060547 95.83276367 C85.32806641 96.69772461 85.28552734 97.56268555 85.24169922 98.45385742 C84.57927883 105.57278035 83.79896335 112.6733214 82.93310547 119.77026367 C79.31868347 118.41008464 76.04697554 116.79064441 72.70654297 114.85620117 C71.68898926 114.26846924 70.67143555 113.6807373 69.62304688 113.07519531 C68.52911621 112.43831787 67.43518555 111.80144043 66.30810547 111.14526367 C65.14722052 110.47250937 63.98624877 109.79990484 62.82519531 109.12744141 C53.57219552 103.75954413 44.37634508 98.2964226 35.18457031 92.82446289 C26.56863932 87.70786449 17.88567735 82.7201666 9.17340088 77.77053833 C-0.57693725 72.22832098 -10.23631014 66.54484186 -19.86962891 60.80102539 C-29.58620722 55.02163203 -39.3887027 49.40038581 -49.22119141 43.82104492 C-50.33558594 43.18811523 -51.44998047 42.55518555 -52.59814453 41.90307617 C-53.58363281 41.34507324 -54.56912109 40.78707031 -55.58447266 40.2121582 C-57.45032547 39.12839279 -59.27152468 37.9671769 -61.06689453 36.77026367 C-59.83310078 33.06888243 -58.88288526 32.79401199 -55.56298828 30.90698242 C-54.60602051 30.35655273 -53.64905273 29.80612305 -52.66308594 29.23901367 C-51.62071777 28.65120117 -50.57834961 28.06338867 -49.50439453 27.45776367 C-47.31285394 26.20148758 -45.12145173 24.94497006 -42.93017578 23.68823242 C-41.23175537 22.72022705 -41.23175537 22.72022705 -39.49902344 21.73266602 C-34.04311399 18.61311841 -28.6182016 15.44092601 -23.19189453 12.27026367 C-22.22566162 11.70782959 -21.25942871 11.14539551 -20.26391602 10.56591797 C-19.33522705 10.02491455 -18.40653809 9.48391113 -17.44970703 8.92651367 C-16.55541992 8.40831055 -15.66113281 7.89010742 -14.73974609 7.35620117 C-12.90511002 6.26761915 -11.08992769 5.14577519 -9.29248047 3.99682617 C-8.41108398 3.43737305 -7.5296875 2.87791992 -6.62158203 2.30151367 C-5.84024902 1.79168945 -5.05891602 1.28186523 -4.25390625 0.7565918 C-2.06689453 -0.22973633 -2.06689453 -0.22973633 0 0 Z " fill="#EA2329" transform="translate(409.06689453125,115.229736328125)"/>
<path d="M0 0 C3.80515674 1.52206269 7.10468548 3.0744605 10.65625 5.0546875 C11.75146973 5.66393066 12.84668945 6.27317383 13.97509766 6.90087891 C15.1501413 7.5587832 16.32510709 8.21682656 17.5 8.875 C18.71004821 9.55010277 19.92017268 10.22506886 21.13037109 10.89990234 C30.95389456 16.38497665 40.73245304 21.94812276 50.47900391 27.56884766 C54.30380189 29.74015947 58.15533003 31.86407224 62 34 C62 81.19 62 128.38 62 177 C54.41 181.29 46.82 185.58 39 190 C32.64381075 193.73043201 32.64381075 193.73043201 26.296875 197.4765625 C21.43365867 200.34490478 16.53038333 203.14206926 11.625 205.9375 C4.24099862 210.14547908 -3.12804751 214.37750019 -10.47949219 218.64208984 C-15.10610797 221.325527 -19.73647915 224.00227087 -24.37109375 226.671875 C-25.47976807 227.31092773 -26.58844238 227.94998047 -27.73071289 228.60839844 C-29.97977765 229.90319196 -32.23025114 231.19554181 -34.48217773 232.48535156 C-39.44530757 235.3348898 -44.3796181 238.20626242 -49.2265625 241.25 C-50.38841064 241.97014282 -50.38841064 241.97014282 -51.57373047 242.70483398 C-52.97695146 243.58023357 -54.37021011 244.47191133 -55.75048828 245.38305664 C-58.65552718 247.18353977 -60.40070579 248.08502383 -63.8359375 247.59765625 C-68.28401721 245.35165057 -72.59030794 242.9174227 -76.875 240.375 C-77.75414062 239.859375 -78.63328125 239.34375 -79.5390625 238.8125 C-81.6957056 237.54664427 -83.84917988 236.27571593 -86 235 C-83.32628492 232.15386101 -80.76484271 230.08047256 -77.37890625 228.14453125 C-76.45835449 227.61335693 -75.53780273 227.08218262 -74.58935547 226.53491211 C-73.59049316 225.96651611 -72.59163086 225.39812012 -71.5625 224.8125 C-69.38903357 223.56039796 -67.21586975 222.30777053 -65.04296875 221.0546875 C-64.4743512 220.72792526 -63.90573364 220.40116302 -63.31988525 220.0644989 C-57.26662962 216.58569573 -51.24330618 213.05637454 -45.22241211 209.52194214 C-43.36801552 208.43340007 -41.51315626 207.34565002 -39.65820312 206.25805664 C-29.63780043 200.38153614 -19.63376626 194.47752502 -9.63720703 188.56054688 C-5.09280897 185.87143445 -0.54624891 183.18598169 4 180.5 C4.7877179 180.00408859 5.57543579 179.50817719 6.38702393 178.99723816 C11.11943285 176.07653461 15.52541906 173.70679121 20.83837891 172.02661133 C27.48678343 169.63415494 32.93827375 166.97039224 37 161 C41.17839309 148.73549423 39.1494114 133.86471719 38.51062012 121.16815186 C38.28406852 116.18901269 38.18478554 111.20743426 38.07421875 106.22460938 C37.83941647 96.476615 37.46489001 86.73954636 37 77 C36.319375 76.7525 35.63875 76.505 34.9375 76.25 C31.49027648 74.78309637 28.25274477 72.8587113 25 71 C24.67 99.05 24.34 127.1 24 156 C1 167 1 167 0 167 C0 111.89 0 56.78 0 0 Z " fill="#EA2229" transform="translate(431,221)"/>
<path d="M0 0 C15.84 0 31.68 0 48 0 C50.97 6.93 53.94 13.86 57 21 C58.86838929 24.80384897 60.73594594 28.53208241 62.75 32.25 C63.76062101 34.15614167 64.7710291 36.06239624 65.78125 37.96875 C66.29945313 38.93941406 66.81765625 39.91007812 67.3515625 40.91015625 C70.34002911 46.51176073 73.29897049 52.12860513 76.25 57.75 C76.82331055 58.82797852 77.39662109 59.90595703 77.98730469 61.01660156 C78.51227539 62.0165918 79.03724609 63.01658203 79.578125 64.046875 C80.04637695 64.93213867 80.51462891 65.81740234 80.99707031 66.72949219 C82 69 82 69 82 72 C82.66 72 83.32 72 84 72 C84.27602051 71.11892578 84.55204102 70.23785156 84.83642578 69.33007812 C85.90128868 66.28250574 87.12447414 63.57492381 88.6171875 60.71875 C89.13571289 59.72311035 89.65423828 58.7274707 90.18847656 57.70166016 C91.02330566 56.11683838 91.02330566 56.11683838 91.875 54.5 C92.45217773 53.39575684 93.02935547 52.29151367 93.62402344 51.15380859 C97.41448227 43.9296035 101.30687936 36.76670014 105.25 29.625 C110.60183306 19.93108046 115.35950867 10.05439787 120 0 C129.9 0 139.8 0 150 0 C148.65346801 3.36632998 147.54706592 5.95248412 145.70703125 8.94921875 C145.24965576 9.70082275 144.79228027 10.45242676 144.32104492 11.22680664 C143.8232251 12.03883545 143.32540527 12.85086426 142.8125 13.6875 C131.97533741 31.57155284 121.61364731 49.72837492 111.5378418 68.05102539 C110.97363525 69.07446045 110.40942871 70.09789551 109.828125 71.15234375 C109.24780518 72.24490479 108.66748535 73.33746582 108.06958008 74.46313477 C106.61683537 77.0839011 104.96481588 79.39135033 103.1237793 81.75366211 C92.06851065 96.77065655 93.70442405 113.45822391 94.24468994 131.2175293 C94.37899364 136.10952032 94.42785166 141.00307992 94.49167633 145.89640045 C94.59706639 153.26742727 94.80820404 160.62844812 95 168 C81.47 168 67.94 168 54 168 C54.17402344 163.27171875 54.34804688 158.5434375 54.52734375 153.671875 C54.60432798 150.60905157 54.67653964 147.54748185 54.73242188 144.484375 C54.8208629 139.6601287 54.92333689 134.8402884 55.1315918 130.01953125 C56.08598882 107.30768946 53.28747628 92.03682195 40.82876587 72.86279297 C38.38760087 69.04133604 36.3150383 65.08330683 34.2734375 61.0390625 C33.61698374 59.78373531 32.95820253 58.52962193 32.296875 57.27685547 C31.98298828 56.67983826 31.66910156 56.08282104 31.34570312 55.4677124 C22.15081036 38.01279493 12.45697612 20.91208623 1.51171875 4.484375 C0 2 0 2 0 0 Z " fill="#EA2329" transform="translate(763,175)"/>
<path d="M0 0 C38.61 0 77.22 0 117 0 C117 8.58 117 17.16 117 26 C115.39125 25.855625 113.7825 25.71125 112.125 25.5625 C104.92084454 24.99984697 97.71275962 24.72965266 90.4921875 24.46484375 C89.28876709 24.41968628 88.08534668 24.37452881 86.84545898 24.32800293 C83.89701326 24.21752767 80.94852907 24.10822393 78 24 C78.10774498 40.26518193 78.22059145 56.5303195 78.33933926 72.79542446 C78.39437275 80.34936042 78.44780193 87.90330106 78.49731445 95.45727539 C78.54052619 102.04931314 78.58689048 108.64132031 78.63687855 115.23331028 C78.66318579 118.71643207 78.68802453 122.19954897 78.70907402 125.68270683 C78.73276112 129.59246736 78.76349422 133.50215702 78.79467773 137.41186523 C78.8004332 138.53828934 78.80618866 139.66471344 78.81211853 140.82527161 C78.89379679 149.93668278 79.46272874 158.86638853 80 168 C65.81 168 51.62 168 37 168 C37.15847412 164.96474121 37.31694824 161.92948242 37.48022461 158.80224609 C38.14173729 144.92680889 38.22603599 131.05275175 38.31640625 117.1640625 C38.33657205 114.46022902 38.35799307 111.75640585 38.37937927 109.05258179 C38.42870151 102.72804412 38.47385672 96.40348431 38.51740164 90.07890451 C38.56730121 82.86206106 38.62201856 75.64525644 38.67708123 68.42845082 C38.78996926 53.61900417 38.89700005 38.80951882 39 24 C34.56231984 24.14064186 30.1249059 24.28847434 25.6875 24.4375 C24.44419922 24.47681641 23.20089844 24.51613281 21.91992188 24.55664062 C20.07817383 24.61948242 20.07817383 24.61948242 18.19921875 24.68359375 C17.08377686 24.72025146 15.96833496 24.75690918 14.8190918 24.79467773 C9.870229 25.06073882 4.93565633 25.55130397 0 26 C0 17.42 0 8.84 0 0 Z " fill="#EA242A" transform="translate(559,175)"/>
<text x="530" y="435" font-family="'Be Vietnam Pro', Arial, sans-serif" font-size="50" font-style="italic" font-weight="700" fill="#636364" letter-spacing=".">ready to eat, ready to use</text>
</svg>
